<svg xmlns="http://www.w3.org/2000/svg" viewBox="0 0 200 200" width="200" height="200">
  <title>Vril Labs</title>
  <path d="M 2,-82 L 14,-60 L 5,-48 L 20,-26 L 10,-8 L 3,0 L -6,-4 L -14,-22 L -7,-44 L -18,-68 Z" transform="translate(100,100) rotate(0)" fill="#39DFC8"/><path d="M 2,-82 L 14,-60 L 5,-48 L 20,-26 L 10,-8 L 3,0 L -6,-4 L -14,-22 L -7,-44 L -18,-68 Z" transform="translate(100,100) rotate(45)" fill="#39DFC8"/><path d="M 2,-82 L 14,-60 L 5,-48 L 20,-26 L 10,-8 L 3,0 L -6,-4 L -14,-22 L -7,-44 L -18,-68 Z" transform="translate(100,100) rotate(90)" fill="#39DFC8"/><path d="M 2,-82 L 14,-60 L 5,-48 L 20,-26 L 10,-8 L 3,0 L -6,-4 L -14,-22 L -7,-44 L -18,-68 Z" transform="translate(100,100) rotate(135)" fill="#39DFC8"/><path d="M 2,-82 L 14,-60 L 5,-48 L 20,-26 L 10,-8 L 3,0 L -6,-4 L -14,-22 L -7,-44 L -18,-68 Z" transform="translate(100,100) rotate(180)" fill="#39DFC8"/><path d="M 2,-82 L 14,-60 L 5,-48 L 20,-26 L 10,-8 L 3,0 L -6,-4 L -14,-22 L -7,-44 L -18,-68 Z" transform="translate(100,100) rotate(225)" fill="#39DFC8"/><path d="M 2,-82 L 14,-60 L 5,-48 L 20,-26 L 10,-8 L 3,0 L -6,-4 L -14,-22 L -7,-44 L -18,-68 Z" transform="translate(100,100) rotate(270)" fill="#39DFC8"/><path d="M 2,-82 L 14,-60 L 5,-48 L 20,-26 L 10,-8 L 3,0 L -6,-4 L -14,-22 L -7,-44 L -18,-68 Z" transform="translate(100,100) rotate(315)" fill="#39DFC8"/>
</svg>